<svg xmlns="http://www.w3.org/2000/svg" width="34" height="38" fill="none"><g clip-path="url(#a)"><path fill="#FDC305" d="M6 21v-3l20-1v2l6-2a17 17 0 0 0-32 3l6 1ZM27 24l-1 4v9a17 17 0 0 0 7-17l-6 4ZM6 26l-5-2H0a17 17 0 0 0 9 14L6 26Z"/><path fill="#F06351" d="M26 17 25 1s0-2-1-1l-1 4-13 1-3-4-1 3v14l20-1Z"/><path fill="#000" d="m12 14 2 1v1h-1 1l-2-2ZM20 14l-1 1v1l1-1h-1l1-1ZM17 20l1-1-1-1-1 1v1h1Z"/><path fill="#F06351" d="M16 21v1h-3v-1s0 4 2 5 2-1 2-1l-1-3v-1Z"/><path fill="#000" d="M15 23a3 3 0 0 1-3-2h1l2 1a2 2 0 0 0 1-1h1l1 1 1-1-1 1a2 2 0 0 1-2 0 2 2 0 0 1-1 1Z"/><path fill="#F06351" d="m26 19-5 5-5 5-2-2-5-3-3-3H4c3 4 7 7 12 8l5-3 6-6 1-2-2 1Z"/></g><defs><clipPath id="a"><path fill="#fff" d="M0 0h33v38H0z"/></clipPath></defs></svg>
